<mxfile host="app.diagrams.net" modified="2022-11-22T02:59:25.264Z" agent="5.0 (Windows NT 10.0; Win64; x64) AppleWebKit/537.36 (KHTML, like Gecko) Chrome/107.0.0.0 Safari/537.36" etag="Np0SgSgY9JR-Nqb4AoPT" version="20.5.3" type="github">
  <diagram id="VD_jXr4xKJXLZA4EowRH" name="Página-1">
    <mxGraphModel dx="1038" dy="543" grid="1" gridSize="10" guides="1" tooltips="1" connect="1" arrows="1" fold="1" page="1" pageScale="1" pageWidth="827" pageHeight="1169" math="0" shadow="0">
      <root>
        <mxCell id="0" />
        <mxCell id="1" parent="0" />
        <mxCell id="A-yhreUbUX_pPKDfRh7y-4" style="edgeStyle=orthogonalEdgeStyle;rounded=0;orthogonalLoop=1;jettySize=auto;html=1;exitX=1;exitY=0.75;exitDx=0;exitDy=0;entryX=0;entryY=0.75;entryDx=0;entryDy=0;" parent="1" source="A-yhreUbUX_pPKDfRh7y-1" target="A-yhreUbUX_pPKDfRh7y-5" edge="1">
          <mxGeometry relative="1" as="geometry">
            <mxPoint x="330" y="145" as="targetPoint" />
          </mxGeometry>
        </mxCell>
        <mxCell id="A-yhreUbUX_pPKDfRh7y-1" value="Espera" style="rounded=1;whiteSpace=wrap;html=1;" parent="1" vertex="1">
          <mxGeometry x="150" y="100" width="120" height="60" as="geometry" />
        </mxCell>
        <mxCell id="ixrurzRMmdRN6aBdF53e-2" style="edgeStyle=orthogonalEdgeStyle;rounded=0;orthogonalLoop=1;jettySize=auto;html=1;exitX=1;exitY=0.5;exitDx=0;exitDy=0;entryX=0;entryY=0.5;entryDx=0;entryDy=0;" parent="1" source="A-yhreUbUX_pPKDfRh7y-5" target="A-yhreUbUX_pPKDfRh7y-6" edge="1">
          <mxGeometry relative="1" as="geometry" />
        </mxCell>
        <mxCell id="A-yhreUbUX_pPKDfRh7y-5" value="Voltas" style="rounded=1;whiteSpace=wrap;html=1;" parent="1" vertex="1">
          <mxGeometry x="354" y="100" width="120" height="60" as="geometry" />
        </mxCell>
        <mxCell id="ixrurzRMmdRN6aBdF53e-3" style="edgeStyle=orthogonalEdgeStyle;rounded=0;orthogonalLoop=1;jettySize=auto;html=1;exitX=0.5;exitY=1;exitDx=0;exitDy=0;entryX=0.5;entryY=0;entryDx=0;entryDy=0;" parent="1" source="A-yhreUbUX_pPKDfRh7y-6" target="A-yhreUbUX_pPKDfRh7y-7" edge="1">
          <mxGeometry relative="1" as="geometry" />
        </mxCell>
        <mxCell id="A-yhreUbUX_pPKDfRh7y-6" value="Direção" style="rounded=1;whiteSpace=wrap;html=1;" parent="1" vertex="1">
          <mxGeometry x="580" y="100" width="120" height="60" as="geometry" />
        </mxCell>
        <mxCell id="ixrurzRMmdRN6aBdF53e-4" style="edgeStyle=orthogonalEdgeStyle;rounded=0;orthogonalLoop=1;jettySize=auto;html=1;entryX=1;entryY=0.5;entryDx=0;entryDy=0;" parent="1" source="A-yhreUbUX_pPKDfRh7y-7" target="A-yhreUbUX_pPKDfRh7y-8" edge="1">
          <mxGeometry relative="1" as="geometry" />
        </mxCell>
        <mxCell id="A-yhreUbUX_pPKDfRh7y-7" value="Velocidade" style="rounded=1;whiteSpace=wrap;html=1;" parent="1" vertex="1">
          <mxGeometry x="580" y="240" width="120" height="60" as="geometry" />
        </mxCell>
        <mxCell id="ixrurzRMmdRN6aBdF53e-19" style="edgeStyle=orthogonalEdgeStyle;rounded=0;orthogonalLoop=1;jettySize=auto;html=1;entryX=1;entryY=0.5;entryDx=0;entryDy=0;" parent="1" source="A-yhreUbUX_pPKDfRh7y-8" target="ixrurzRMmdRN6aBdF53e-1" edge="1">
          <mxGeometry relative="1" as="geometry" />
        </mxCell>
        <mxCell id="A-yhreUbUX_pPKDfRh7y-8" value="Rotaciona" style="rounded=1;whiteSpace=wrap;html=1;" parent="1" vertex="1">
          <mxGeometry x="360" y="240" width="120" height="60" as="geometry" />
        </mxCell>
        <mxCell id="ixrurzRMmdRN6aBdF53e-6" style="edgeStyle=orthogonalEdgeStyle;rounded=0;orthogonalLoop=1;jettySize=auto;html=1;exitX=0.5;exitY=0;exitDx=0;exitDy=0;entryX=0.5;entryY=1;entryDx=0;entryDy=0;" parent="1" source="ixrurzRMmdRN6aBdF53e-1" target="A-yhreUbUX_pPKDfRh7y-1" edge="1">
          <mxGeometry relative="1" as="geometry" />
        </mxCell>
        <mxCell id="ixrurzRMmdRN6aBdF53e-1" value="FIM" style="rounded=1;whiteSpace=wrap;html=1;" parent="1" vertex="1">
          <mxGeometry x="150" y="240" width="120" height="60" as="geometry" />
        </mxCell>
        <mxCell id="ixrurzRMmdRN6aBdF53e-7" style="edgeStyle=orthogonalEdgeStyle;rounded=0;orthogonalLoop=1;jettySize=auto;html=1;exitX=0.75;exitY=0;exitDx=0;exitDy=0;entryX=0.25;entryY=0;entryDx=0;entryDy=0;" parent="1" source="A-yhreUbUX_pPKDfRh7y-1" target="A-yhreUbUX_pPKDfRh7y-1" edge="1">
          <mxGeometry relative="1" as="geometry">
            <Array as="points">
              <mxPoint x="240" y="40" />
              <mxPoint x="180" y="40" />
            </Array>
          </mxGeometry>
        </mxCell>
        <mxCell id="ixrurzRMmdRN6aBdF53e-8" value="Outra Tecla" style="text;html=1;align=center;verticalAlign=middle;resizable=0;points=[];autosize=1;strokeColor=none;fillColor=none;" parent="1" vertex="1">
          <mxGeometry x="170" y="15" width="80" height="30" as="geometry" />
        </mxCell>
        <mxCell id="ixrurzRMmdRN6aBdF53e-9" value="Tecla &#39;*&#39;" style="text;html=1;align=center;verticalAlign=middle;resizable=0;points=[];autosize=1;strokeColor=none;fillColor=none;" parent="1" vertex="1">
          <mxGeometry x="280" y="115" width="60" height="30" as="geometry" />
        </mxCell>
        <mxCell id="ixrurzRMmdRN6aBdF53e-10" value="Informa Voltas" style="text;html=1;align=center;verticalAlign=middle;resizable=0;points=[];autosize=1;strokeColor=none;fillColor=none;" parent="1" vertex="1">
          <mxGeometry x="470" y="95" width="100" height="30" as="geometry" />
        </mxCell>
        <mxCell id="ixrurzRMmdRN6aBdF53e-11" value="Informa Direção" style="text;html=1;align=center;verticalAlign=middle;resizable=0;points=[];autosize=1;strokeColor=none;fillColor=none;" parent="1" vertex="1">
          <mxGeometry x="640" y="180" width="110" height="30" as="geometry" />
        </mxCell>
        <mxCell id="ixrurzRMmdRN6aBdF53e-12" value="Informa &lt;br&gt;Velocidade" style="text;html=1;align=center;verticalAlign=middle;resizable=0;points=[];autosize=1;strokeColor=none;fillColor=none;" parent="1" vertex="1">
          <mxGeometry x="495" y="225" width="80" height="40" as="geometry" />
        </mxCell>
        <mxCell id="ixrurzRMmdRN6aBdF53e-20" value="Termina a&amp;nbsp;&lt;br&gt;Rotação" style="text;html=1;align=center;verticalAlign=middle;resizable=0;points=[];autosize=1;strokeColor=none;fillColor=none;" parent="1" vertex="1">
          <mxGeometry x="270" y="230" width="80" height="40" as="geometry" />
        </mxCell>
      </root>
    </mxGraphModel>
  </diagram>
</mxfile>
